<svg viewBox="279.0 259.0 466.0 424.8" xmlns="http://www.w3.org/2000/svg">
  <polygon points="304.3,567.6 300.9,557.5 298.0,547.3 295.6,537.0 293.7,526.6 292.3,516.1 291.4,505.5 291.0,494.9 291.1,484.3 291.8,473.7 292.9,463.2 294.5,452.7 296.7,442.3 299.3,432.0 302.4,421.9 306.0,411.9 310.1,402.1 314.7,392.5 319.7,383.2 325.1,374.1 331.0,365.2 337.3,356.7 344.0,348.5 351.0,340.6 358.5,333.0 366.3,325.8 374.4,319.0 382.9,312.6 391.6,306.7 400.7,301.1 410.0,296.0 419.5,291.3 429.2,287.1 439.1,283.4 449.2,280.1 459.5,277.3 469.8,275.1 480.3,273.3 490.8,272.0 501.4,271.3 512.0,271.0 522.6,271.3 533.2,272.0 543.7,273.3 554.2,275.1 564.5,277.3 574.8,280.1 584.9,283.4 594.8,287.1 604.5,291.3 614.0,296.0 623.3,301.1 632.4,306.7 641.1,312.6 649.6,319.0 657.7,325.8 665.5,333.0 673.0,340.6 680.0,348.5 686.7,356.7 693.0,365.2 698.9,374.1 704.3,383.2 709.3,392.5 713.9,402.1 718.0,411.9 721.6,421.9 724.7,432.0 727.3,442.3 729.5,452.7 731.1,463.2 732.2,473.7 732.9,484.3 733.0,494.9 732.6,505.5 731.7,516.1 730.3,526.6 728.4,537.0 726.0,547.3 723.1,557.5 719.7,567.6 661.4,546.4 663.8,539.2 665.9,531.8 667.7,524.4 669.0,516.9 670.1,509.3 670.7,501.7 671.0,494.1 670.9,486.5 670.5,478.8 669.6,471.2 668.5,463.7 666.9,456.2 665.0,448.8 662.8,441.5 660.2,434.4 657.3,427.3 654.0,420.4 650.4,413.7 646.5,407.2 642.2,400.8 637.7,394.7 632.9,388.7 627.8,383.1 622.5,377.6 616.8,372.5 611.0,367.6 604.9,363.0 598.6,358.7 592.1,354.7 585.4,351.0 578.6,347.6 571.6,344.6 564.4,341.9 557.2,339.5 549.8,337.6 542.3,335.9 534.8,334.6 527.2,333.7 519.6,333.2 512.0,333.0 504.4,333.2 496.8,333.7 489.2,334.6 481.7,335.9 474.2,337.6 466.8,339.5 459.6,341.9 452.4,344.6 445.4,347.6 438.6,351.0 431.9,354.7 425.4,358.7 419.1,363.0 413.0,367.6 407.2,372.5 401.5,377.6 396.2,383.1 391.1,388.7 386.3,394.7 381.8,400.8 377.5,407.2 373.6,413.7 370.0,420.4 366.7,427.3 363.8,434.4 361.2,441.5 359.0,448.8 357.1,456.2 355.5,463.7 354.4,471.2 353.5,478.8 353.1,486.5 353.0,494.1 353.3,501.7 353.9,509.3 355.0,516.9 356.3,524.4 358.1,531.8 360.2,539.2 362.6,546.4" fill="#343535"/>
  <polygon points="304.3,567.6 302.1,561.2 300.1,554.8 298.3,548.3 296.7,541.7 295.2,535.1 294.0,528.5 293.0,521.8 292.2,515.1 291.6,508.4 291.2,501.6 291.0,494.9 291.0,488.1 291.3,481.4 291.7,474.7 292.3,467.9 293.2,461.2 294.2,454.6 295.4,447.9 296.9,441.3 298.5,434.8 300.4,428.3 302.4,421.9 304.7,415.5 307.1,409.2 309.7,403.0 312.5,396.9 315.5,390.8 318.7,384.9 322.1,379.0 325.6,373.3 329.3,367.6 333.2,362.1 337.3,356.7 341.5,351.4 345.8,346.3 350.4,341.3 355.0,336.4 359.9,331.7 364.8,327.1 369.9,322.7 375.2,318.4 380.5,314.3 386.0,310.4 391.6,306.7 397.4,303.1 403.2,299.7 409.1,296.4 415.1,293.4 421.2,290.5 427.4,287.8 433.7,285.3 440.0,283.0 446.5,280.9 452.9,279.0 459.5,277.3 466.1,275.8 472.7,274.5 479.3,273.4 486.0,272.5 492.7,271.8 499.5,271.4 506.2,271.1 513.0,271.0 519.7,271.1 526.5,271.5 533.2,272.0 539.9,272.8 546.6,273.7 553.2,274.9 559.8,276.2 566.4,277.8 572.9,279.6 579.4,281.5 585.8,283.7 592.1,286.0 598.4,288.6 604.5,291.3 610.6,294.2 616.6,297.3 622.5,300.6 591.5,354.3 587.3,351.9 582.9,349.7 578.6,347.6 574.1,345.6 569.6,343.8 565.1,342.1 560.5,340.6 555.8,339.2 551.1,337.9 546.4,336.8 541.7,335.8 536.9,335.0 532.1,334.3 527.2,333.7 522.4,333.3 517.5,333.1 512.7,333.0 507.8,333.1 503.0,333.3 498.1,333.6 493.3,334.1 488.5,334.7 483.7,335.5 478.9,336.5 474.2,337.6 469.5,338.8 464.8,340.2 460.2,341.7 455.7,343.3 451.2,345.1 446.7,347.0 442.3,349.1 438.0,351.3 433.7,353.6 429.5,356.1 425.4,358.7 421.4,361.4 417.4,364.2 413.6,367.1 409.8,370.2 406.1,373.4 402.6,376.7 399.1,380.1 395.7,383.6 392.5,387.2 389.3,390.9 386.3,394.7 383.4,398.5 380.6,402.5 377.9,406.6 375.4,410.7 372.9,414.9 370.6,419.2 368.5,423.5 366.5,428.0 364.6,432.4 362.8,437.0 361.2,441.5 359.7,446.2 358.4,450.8 357.2,455.6 356.2,460.3 355.3,465.1 354.5,469.9 353.9,474.7 353.5,479.5 353.2,484.4 353.0,489.2 353.0,494.1 353.2,498.9 353.4,503.8 353.9,508.6 354.5,513.4 355.2,518.2 356.1,523.0 357.1,527.8 358.2,532.5 359.5,537.2 361.0,541.8 362.6,546.4" fill="#B6C4FF"/>
  <circle cx="333.5" cy="557.0" r="31.0" fill="#B6C4FF"/>
  <circle cx="690.5" cy="557.0" r="31.0" fill="#343535"/>
  <line x1="512.0" y1="492.0" x2="580.4" y2="373.5" stroke="#E3E2E2" stroke-width="26" stroke-linecap="round"/>
  <circle cx="512.0" cy="492.0" r="32" fill="#E3E2E2"/>
  <polyline points="438.0,598.8 479.9,628.8 438.0,658.8" fill="none" stroke="#E3E2E2" stroke-width="26" stroke-linecap="round" stroke-linejoin="round"/>
  <rect x="501.9" y="632.6" width="60.0" height="26" rx="13.0" fill="#B6C4FF"/>
</svg>
