<svg viewBox="293.0 273.0 438.0 395.8" xmlns="http://www.w3.org/2000/svg">
  <polygon points="317.5,562.8 314.3,553.4 311.6,543.8 309.3,534.2 307.5,524.4 306.2,514.5 305.4,504.6 305.0,494.7 305.1,484.8 305.7,474.9 306.8,465.0 308.3,455.2 310.3,445.4 312.8,435.8 315.7,426.3 319.1,417.0 322.9,407.8 327.2,398.8 331.8,390.1 336.9,381.5 342.4,373.3 348.3,365.3 354.6,357.6 361.2,350.2 368.2,343.1 375.5,336.4 383.1,330.0 391.1,324.0 399.3,318.4 407.7,313.2 416.4,308.4 425.3,304.0 434.5,300.1 443.8,296.6 453.2,293.5 462.8,290.9 472.5,288.8 482.3,287.1 492.2,286.0 502.1,285.2 512.0,285.0 521.9,285.2 531.8,286.0 541.7,287.1 551.5,288.8 561.2,290.9 570.8,293.5 580.2,296.6 589.5,300.1 598.7,304.0 607.6,308.4 616.3,313.2 624.7,318.4 632.9,324.0 640.9,330.0 648.5,336.4 655.8,343.1 662.8,350.2 669.4,357.6 675.7,365.3 681.6,373.3 687.1,381.5 692.2,390.1 696.8,398.8 701.1,407.8 704.9,417.0 708.3,426.3 711.2,435.8 713.7,445.4 715.7,455.2 717.2,465.0 718.3,474.9 718.9,484.8 719.0,494.7 718.6,504.6 717.8,514.5 716.5,524.4 714.7,534.2 712.4,543.8 709.7,553.4 706.5,562.8 674.6,551.2 677.2,543.3 679.5,535.3 681.4,527.2 682.9,519.1 684.0,510.8 684.7,502.6 685.0,494.3 684.9,486.0 684.4,477.7 683.5,469.4 682.2,461.2 680.6,453.1 678.5,445.0 676.1,437.1 673.2,429.3 670.0,421.6 666.5,414.1 662.6,406.8 658.3,399.7 653.7,392.8 648.8,386.1 643.6,379.6 638.0,373.5 632.2,367.6 626.1,361.9 619.7,356.6 613.1,351.6 606.2,346.9 599.2,342.6 591.9,338.5 584.4,334.9 576.8,331.6 569.0,328.7 561.1,326.1 553.1,324.0 545.0,322.2 536.8,320.8 528.6,319.8 520.3,319.2 512.0,319.0 503.7,319.2 495.4,319.8 487.2,320.8 479.0,322.2 470.9,324.0 462.9,326.1 455.0,328.7 447.2,331.6 439.6,334.9 432.1,338.5 424.8,342.6 417.8,346.9 410.9,351.6 404.3,356.6 397.9,361.9 391.8,367.6 386.0,373.5 380.4,379.6 375.2,386.1 370.3,392.8 365.7,399.7 361.4,406.8 357.5,414.1 354.0,421.6 350.8,429.3 347.9,437.1 345.5,445.0 343.4,453.1 341.8,461.2 340.5,469.4 339.6,477.7 339.1,486.0 339.0,494.3 339.3,502.6 340.0,510.8 341.1,519.1 342.6,527.2 344.5,535.3 346.8,543.3 349.4,551.2" fill="#343535"/>
  <polygon points="317.5,562.8 315.4,556.8 313.5,550.8 311.8,544.7 310.3,538.6 309.0,532.4 307.8,526.2 306.9,519.9 306.1,513.6 305.6,507.3 305.2,501.0 305.0,494.7 305.0,488.4 305.2,482.1 305.6,475.8 306.2,469.5 307.0,463.2 308.0,456.9 309.2,450.7 310.5,444.6 312.1,438.4 313.8,432.3 315.7,426.3 317.8,420.4 320.1,414.5 322.5,408.6 325.2,402.9 328.0,397.2 331.0,391.6 334.1,386.2 337.4,380.8 340.9,375.5 344.5,370.3 348.3,365.3 352.3,360.3 356.4,355.5 360.6,350.8 365.0,346.3 369.5,341.8 374.2,337.6 378.9,333.4 383.8,329.4 388.9,325.6 394.0,321.9 399.3,318.4 404.6,315.0 410.1,311.8 415.6,308.8 421.3,305.9 427.0,303.3 432.8,300.8 438.7,298.4 444.6,296.3 450.6,294.3 456.7,292.5 462.8,290.9 469.0,289.5 475.2,288.3 481.4,287.3 487.7,286.4 494.0,285.8 500.3,285.3 506.6,285.1 512.9,285.0 519.2,285.1 525.5,285.4 531.8,286.0 538.1,286.7 544.4,287.5 550.6,288.6 556.8,289.9 563.0,291.4 569.1,293.0 575.1,294.9 581.1,296.9 587.0,299.1 592.9,301.5 598.7,304.0 604.4,306.7 610.0,309.7 615.5,312.7 598.5,342.2 593.9,339.6 589.2,337.2 584.4,334.9 579.6,332.8 574.7,330.8 569.7,328.9 564.7,327.2 559.7,325.7 554.6,324.3 549.4,323.1 544.3,322.0 539.1,321.1 533.8,320.4 528.6,319.8 523.3,319.4 518.0,319.1 512.8,319.0 507.5,319.1 502.2,319.3 496.9,319.7 491.7,320.2 486.4,320.9 481.2,321.8 476.0,322.8 470.9,324.0 465.8,325.3 460.7,326.8 455.7,328.4 450.7,330.2 445.8,332.2 440.9,334.3 436.2,336.5 431.4,338.9 426.8,341.4 422.3,344.1 417.8,346.9 413.4,349.9 409.1,352.9 404.9,356.1 400.8,359.5 396.8,362.9 392.9,366.5 389.1,370.2 385.5,374.0 381.9,377.9 378.5,382.0 375.2,386.1 372.0,390.3 369.0,394.6 366.1,399.0 363.3,403.5 360.7,408.1 358.2,412.8 355.9,417.5 353.7,422.3 351.6,427.2 349.7,432.1 347.9,437.1 346.3,442.1 344.9,447.2 343.6,452.3 342.5,457.5 341.5,462.7 340.7,467.9 340.0,473.2 339.5,478.4 339.2,483.7 339.0,489.0 339.0,494.3 339.2,499.5 339.5,504.8 339.9,510.1 340.6,515.3 341.4,520.6 342.3,525.8 343.4,530.9 344.7,536.0 346.1,541.1 347.7,546.2 349.4,551.2" fill="#B6C4FF"/>
  <circle cx="333.5" cy="557.0" r="17.0" fill="#B6C4FF"/>
  <circle cx="690.5" cy="557.0" r="17.0" fill="#343535"/>
  <line x1="512.0" y1="492.0" x2="580.4" y2="373.5" stroke="#E3E2E2" stroke-width="14" stroke-linecap="round"/>
  <circle cx="512.0" cy="492.0" r="20" fill="#E3E2E2"/>
  <polyline points="436.0,600.8 479.9,628.8 436.0,656.8" fill="none" stroke="#E3E2E2" stroke-width="16" stroke-linecap="round" stroke-linejoin="round"/>
  <rect x="499.9" y="638.6" width="56.0" height="14" rx="7.0" fill="#B6C4FF"/>
</svg>
